<svg xmlns="http://www.w3.org/2000/svg" width="234" height="52" fill="none" viewBox="0 0 234 52"><path fill="#38CA30" d="M14.256 35.18C11.064 35.18 8.58 34.256 6.804 32.408C5.052 30.56 4.176 27.86 4.176 24.308V9.8H6.012V24.236C6.012 27.332 6.72 29.648 8.136 31.184C9.552 32.72 11.604 33.488 14.292 33.488C16.956 33.488 18.996 32.72 20.412 31.184C21.828 29.648 22.536 27.332 22.536 24.236V9.8H24.372V24.308C24.372 27.86 23.484 30.56 21.708 32.408C19.932 34.256 17.448 35.18 14.256 35.18ZM49.0669 8.288V35H47.3029V30.572C46.5589 32.036 45.5149 33.164 44.1709 33.956C42.8269 34.748 41.3029 35.144 39.5989 35.144C37.8469 35.144 36.2629 34.736 34.8469 33.92C33.4309 33.104 32.3149 31.976 31.4989 30.536C30.7069 29.096 30.3109 27.452 30.3109 25.604C30.3109 23.756 30.7069 22.112 31.4989 20.672C32.3149 19.208 33.4309 18.08 34.8469 17.288C36.2629 16.472 37.8469 16.064 39.5989 16.064C41.2789 16.064 42.7789 16.46 44.0989 17.252C45.4429 18.044 46.4989 19.148 47.2669 20.564V8.288H49.0669ZM39.7069 33.524C41.1469 33.524 42.4309 33.188 43.5589 32.516C44.7109 31.844 45.6109 30.908 46.2589 29.708C46.9309 28.508 47.2669 27.14 47.2669 25.604C47.2669 24.068 46.9309 22.7 46.2589 21.5C45.6109 20.3 44.7109 19.364 43.5589 18.692C42.4309 18.02 41.1469 17.684 39.7069 17.684C38.2669 17.684 36.9709 18.02 35.8189 18.692C34.6909 19.364 33.7909 20.3 33.1189 21.5C32.4709 22.7 32.1469 24.068 32.1469 25.604C32.1469 27.14 32.4709 28.508 33.1189 29.708C33.7909 30.908 34.6909 31.844 35.8189 32.516C36.9709 33.188 38.2669 33.524 39.7069 33.524ZM63.9998 35.144C62.2238 35.144 60.6158 34.736 59.1758 33.92C57.7598 33.104 56.6438 31.976 55.8278 30.536C55.0118 29.072 54.6038 27.428 54.6038 25.604C54.6038 23.78 55.0118 22.148 55.8278 20.708C56.6438 19.244 57.7598 18.104 59.1758 17.288C60.6158 16.472 62.2238 16.064 63.9998 16.064C65.7758 16.064 67.3718 16.472 68.7878 17.288C70.2278 18.104 71.3558 19.244 72.1718 20.708C72.9878 22.148 73.3958 23.78 73.3958 25.604C73.3958 27.428 72.9878 29.072 72.1718 30.536C71.3558 31.976 70.2278 33.104 68.7878 33.92C67.3718 34.736 65.7758 35.144 63.9998 35.144ZM63.9998 33.524C65.4398 33.524 66.7238 33.188 67.8518 32.516C69.0038 31.844 69.9038 30.908 70.5518 29.708C71.2238 28.508 71.5598 27.14 71.5598 25.604C71.5598 24.068 71.2238 22.7 70.5518 21.5C69.9038 20.3 69.0038 19.364 67.8518 18.692C66.7238 18.02 65.4398 17.684 63.9998 17.684C62.5598 17.684 61.2638 18.02 60.1118 18.692C58.9838 19.364 58.0838 20.3 57.4118 21.5C56.7638 22.7 56.4398 24.068 56.4398 25.604C56.4398 27.14 56.7638 28.508 57.4118 29.708C58.0838 30.908 58.9838 31.844 60.1118 32.516C61.2638 33.188 62.5598 33.524 63.9998 33.524ZM103.388 35L103.352 13.436L92.8041 31.652H91.9041L81.3561 13.508V35H79.5561V9.8H81.1041L92.3721 29.276L103.64 9.8H105.152L105.188 35H103.388ZM122.83 16.064C124.582 16.064 126.166 16.472 127.582 17.288C128.998 18.08 130.102 19.208 130.894 20.672C131.71 22.112 132.118 23.756 132.118 25.604C132.118 27.452 131.71 29.096 130.894 30.536C130.102 31.976 128.998 33.104 127.582 33.92C126.166 34.736 124.582 35.144 122.83 35.144C121.15 35.144 119.626 34.748 118.258 33.956C116.914 33.14 115.87 32.012 115.126 30.572V35H113.398V8.288H115.198V20.492C115.942 19.1 116.986 18.02 118.33 17.252C119.674 16.46 121.174 16.064 122.83 16.064ZM122.722 33.524C124.162 33.524 125.458 33.188 126.61 32.516C127.762 31.844 128.662 30.908 129.31 29.708C129.982 28.508 130.318 27.14 130.318 25.604C130.318 24.068 129.982 22.7 129.31 21.5C128.662 20.3 127.762 19.364 126.61 18.692C125.458 18.02 124.162 17.684 122.722 17.684C121.282 17.684 119.986 18.02 118.834 18.692C117.706 19.364 116.806 20.3 116.134 21.5C115.486 22.7 115.162 24.068 115.162 25.604C115.162 27.14 115.486 28.508 116.134 29.708C116.806 30.908 117.706 31.844 118.834 32.516C119.986 33.188 121.282 33.524 122.722 33.524ZM143.957 16.064C146.285 16.064 148.073 16.664 149.321 17.864C150.569 19.04 151.193 20.78 151.193 23.084V35H149.465V31.652C148.865 32.756 147.989 33.62 146.837 34.244C145.685 34.844 144.305 35.144 142.697 35.144C140.609 35.144 138.953 34.652 137.729 33.668C136.529 32.684 135.929 31.388 135.929 29.78C135.929 28.22 136.481 26.96 137.585 26C138.713 25.016 140.501 24.524 142.949 24.524H149.393V23.012C149.393 21.26 148.913 19.928 147.953 19.016C147.017 18.104 145.637 17.648 143.813 17.648C142.565 17.648 141.365 17.864 140.213 18.296C139.085 18.728 138.125 19.304 137.333 20.024L136.433 18.728C137.369 17.888 138.497 17.24 139.817 16.784C141.137 16.304 142.517 16.064 143.957 16.064ZM142.949 33.668C144.509 33.668 145.829 33.308 146.909 32.588C148.013 31.868 148.841 30.824 149.393 29.456V25.928H142.985C141.137 25.928 139.793 26.264 138.953 26.936C138.137 27.608 137.729 28.532 137.729 29.708C137.729 30.932 138.185 31.904 139.097 32.624C140.009 33.32 141.293 33.668 142.949 33.668ZM165.305 24.956L160.409 29.42V35H158.609V8.288H160.409V27.188L172.433 16.208H174.737L166.637 23.804L175.529 35H173.297L165.305 24.956ZM185.757 16.064C188.085 16.064 189.873 16.664 191.121 17.864C192.369 19.04 192.993 20.78 192.993 23.084V35H191.265V31.652C190.665 32.756 189.789 33.62 188.637 34.244C187.485 34.844 186.105 35.144 184.497 35.144C182.409 35.144 180.753 34.652 179.529 33.668C178.329 32.684 177.729 31.388 177.729 29.78C177.729 28.22 178.281 26.96 179.385 26C180.513 25.016 182.301 24.524 184.749 24.524H191.193V23.012C191.193 21.26 190.713 19.928 189.753 19.016C188.817 18.104 187.437 17.648 185.613 17.648C184.365 17.648 183.165 17.864 182.013 18.296C180.885 18.728 179.925 19.304 179.133 20.024L178.233 18.728C179.169 17.888 180.297 17.24 181.617 16.784C182.937 16.304 184.317 16.064 185.757 16.064ZM184.749 33.668C186.309 33.668 187.629 33.308 188.709 32.588C189.813 31.868 190.641 30.824 191.193 29.456V25.928H184.785C182.937 25.928 181.593 26.264 180.753 26.936C179.937 27.608 179.529 28.532 179.529 29.708C179.529 30.932 179.985 31.904 180.897 32.624C181.809 33.32 183.093 33.668 184.749 33.668ZM202.138 20.312C202.714 18.944 203.614 17.9 204.838 17.18C206.062 16.436 207.55 16.064 209.302 16.064V17.828L208.87 17.792C206.782 17.792 205.15 18.452 203.974 19.772C202.798 21.068 202.21 22.88 202.21 25.208V35H200.41V16.208H202.138V20.312ZM220.597 16.064C222.925 16.064 224.713 16.664 225.961 17.864C227.209 19.04 227.833 20.78 227.833 23.084V35H226.105V31.652C225.505 32.756 224.629 33.62 223.477 34.244C222.325 34.844 220.945 35.144 219.337 35.144C217.249 35.144 215.593 34.652 214.369 33.668C213.169 32.684 212.569 31.388 212.569 29.78C212.569 28.22 213.121 26.96 214.225 26C215.353 25.016 217.141 24.524 219.589 24.524H226.033V23.012C226.033 21.26 225.553 19.928 224.593 19.016C223.657 18.104 222.277 17.648 220.453 17.648C219.205 17.648 218.005 17.864 216.853 18.296C215.725 18.728 214.765 19.304 213.973 20.024L213.073 18.728C214.009 17.888 215.137 17.24 216.457 16.784C217.777 16.304 219.157 16.064 220.597 16.064ZM219.589 33.668C221.149 33.668 222.469 33.308 223.549 32.588C224.653 31.868 225.481 30.824 226.033 29.456V25.928H219.625C217.777 25.928 216.433 26.264 215.593 26.936C214.777 27.608 214.369 28.532 214.369 29.708C214.369 30.932 214.825 31.904 215.737 32.624C216.649 33.32 217.933 33.668 219.589 33.668Z"/><path fill="#38CA30" d="M170.887 42.576C170.202 42.576 169.86 42.9487 169.86 43.694V44.11H171.771V45.41H169.912V51H168.287V45.41H167.143V44.11H168.287V43.668C168.287 42.9227 168.504 42.3377 168.937 41.913C169.37 41.4797 169.981 41.263 170.77 41.263C171.394 41.263 171.884 41.3887 172.239 41.64L171.784 42.862C171.507 42.6713 171.208 42.576 170.887 42.576ZM175.883 51.091C175.181 51.091 174.549 50.9393 173.985 50.636C173.422 50.3327 172.98 49.9123 172.659 49.375C172.347 48.829 172.191 48.2137 172.191 47.529C172.191 46.8443 172.347 46.2333 172.659 45.696C172.98 45.1587 173.422 44.7383 173.985 44.435C174.549 44.1317 175.181 43.98 175.883 43.98C176.594 43.98 177.231 44.1317 177.794 44.435C178.358 44.7383 178.795 45.1587 179.107 45.696C179.428 46.2333 179.588 46.8443 179.588 47.529C179.588 48.2137 179.428 48.829 179.107 49.375C178.795 49.9123 178.358 50.3327 177.794 50.636C177.231 50.9393 176.594 51.091 175.883 51.091ZM175.883 49.7C176.481 49.7 176.975 49.5007 177.365 49.102C177.755 48.7033 177.95 48.179 177.95 47.529C177.95 46.879 177.755 46.3547 177.365 45.956C176.975 45.5573 176.481 45.358 175.883 45.358C175.285 45.358 174.791 45.5573 174.401 45.956C174.02 46.3547 173.829 46.879 173.829 47.529C173.829 48.179 174.02 48.7033 174.401 49.102C174.791 49.5007 175.285 49.7 175.883 49.7ZM182.689 45.072C183.157 44.344 183.981 43.98 185.159 43.98V45.527C185.021 45.501 184.895 45.488 184.782 45.488C184.15 45.488 183.656 45.6743 183.3 46.047C182.945 46.411 182.767 46.9397 182.767 47.633V51H181.142V44.058H182.689V45.072ZM194.133 43.98C195.008 43.98 195.71 44.2357 196.239 44.747C196.768 45.2583 197.032 46.0167 197.032 47.022V51H195.407V47.23C195.407 46.6233 195.264 46.1683 194.978 45.865C194.692 45.553 194.285 45.397 193.756 45.397C193.158 45.397 192.686 45.579 192.339 45.943C191.992 46.2983 191.819 46.814 191.819 47.49V51H190.194V41.354H191.819V44.864C192.088 44.578 192.417 44.3613 192.807 44.214C193.206 44.058 193.648 43.98 194.133 43.98ZM202.277 51.091C201.575 51.091 200.942 50.9393 200.379 50.636C199.815 50.3327 199.373 49.9123 199.053 49.375C198.741 48.829 198.585 48.2137 198.585 47.529C198.585 46.8443 198.741 46.2333 199.053 45.696C199.373 45.1587 199.815 44.7383 200.379 44.435C200.942 44.1317 201.575 43.98 202.277 43.98C202.987 43.98 203.624 44.1317 204.188 44.435C204.751 44.7383 205.189 45.1587 205.501 45.696C205.821 46.2333 205.982 46.8443 205.982 47.529C205.982 48.2137 205.821 48.829 205.501 49.375C205.189 49.9123 204.751 50.3327 204.188 50.636C203.624 50.9393 202.987 51.091 202.277 51.091ZM202.277 49.7C202.875 49.7 203.369 49.5007 203.759 49.102C204.149 48.7033 204.344 48.179 204.344 47.529C204.344 46.879 204.149 46.3547 203.759 45.956C203.369 45.5573 202.875 45.358 202.277 45.358C201.679 45.358 201.185 45.5573 200.795 45.956C200.413 46.3547 200.223 46.879 200.223 47.529C200.223 48.179 200.413 48.7033 200.795 49.102C201.185 49.5007 201.679 49.7 202.277 49.7ZM214.257 44.058V51H212.71V50.116C212.45 50.428 212.125 50.6707 211.735 50.844C211.345 51.0087 210.924 51.091 210.474 51.091C209.546 51.091 208.814 50.8353 208.277 50.324C207.748 49.804 207.484 49.037 207.484 48.023V44.058H209.109V47.802C209.109 48.426 209.247 48.894 209.525 49.206C209.811 49.5093 210.214 49.661 210.734 49.661C211.314 49.661 211.774 49.4833 212.112 49.128C212.458 48.764 212.632 48.244 212.632 47.568V44.058H214.257ZM218.529 51.091C217.966 51.091 217.416 51.0173 216.878 50.87C216.341 50.7227 215.912 50.5363 215.591 50.311L216.215 49.076C216.527 49.284 216.9 49.453 217.333 49.583C217.775 49.7043 218.209 49.765 218.633 49.765C219.604 49.765 220.089 49.5093 220.089 48.998C220.089 48.7553 219.964 48.5863 219.712 48.491C219.47 48.3957 219.075 48.3047 218.529 48.218C217.957 48.1313 217.489 48.0317 217.125 47.919C216.77 47.8063 216.458 47.6113 216.189 47.334C215.929 47.048 215.799 46.6537 215.799 46.151C215.799 45.4923 216.072 44.968 216.618 44.578C217.173 44.1793 217.918 43.98 218.854 43.98C219.331 43.98 219.808 44.0363 220.284 44.149C220.761 44.253 221.151 44.396 221.454 44.578L220.83 45.813C220.241 45.4663 219.578 45.293 218.841 45.293C218.365 45.293 218.001 45.3667 217.749 45.514C217.507 45.6527 217.385 45.839 217.385 46.073C217.385 46.333 217.515 46.5193 217.775 46.632C218.044 46.736 218.456 46.8357 219.01 46.931C219.565 47.0177 220.02 47.1173 220.375 47.23C220.731 47.3427 221.034 47.5333 221.285 47.802C221.545 48.0707 221.675 48.452 221.675 48.946C221.675 49.596 221.394 50.116 220.83 50.506C220.267 50.896 219.5 51.091 218.529 51.091ZM229.601 47.568C229.601 47.6807 229.592 47.841 229.575 48.049H224.128C224.223 48.5603 224.47 48.9677 224.869 49.271C225.276 49.5657 225.779 49.713 226.377 49.713C227.139 49.713 227.768 49.4617 228.262 48.959L229.133 49.96C228.821 50.3327 228.426 50.6143 227.95 50.805C227.473 50.9957 226.936 51.091 226.338 51.091C225.575 51.091 224.903 50.9393 224.323 50.636C223.742 50.3327 223.291 49.9123 222.971 49.375C222.659 48.829 222.503 48.2137 222.503 47.529C222.503 46.853 222.654 46.2463 222.958 45.709C223.27 45.163 223.699 44.7383 224.245 44.435C224.791 44.1317 225.406 43.98 226.091 43.98C226.767 43.98 227.369 44.1317 227.898 44.435C228.435 44.7297 228.851 45.15 229.146 45.696C229.449 46.2333 229.601 46.8573 229.601 47.568ZM226.091 45.28C225.571 45.28 225.129 45.436 224.765 45.748C224.409 46.0513 224.193 46.4587 224.115 46.97H228.054C227.984 46.4673 227.772 46.06 227.417 45.748C227.061 45.436 226.619 45.28 226.091 45.28Z"/></svg>